<svg width="1280" height="375" xmlns="http://www.w3.org/2000/svg" xmlns:xlink="http://www.w3.org/1999/xlink" overflow="hidden"><defs><clipPath id="clip0"><rect x="0" y="0" width="1280" height="375"/></clipPath></defs><g clip-path="url(#clip0)"><path d="M212.193 264.183 240.339 292.366C240.339 292.366 245.135 296.017 252.067 294.104 258.938 292.183 285.963 285.865 285.963 285.865 285.963 285.865 292.28 258.812 294.201 251.926 296.123 245.039 292.465 240.237 292.465 240.237L264.302 212.078 264.502 211.537 304.378 211.537C304.378 211.537 310.345 210.715 313.847 204.484 317.382 198.264 332.017 174.686 332.017 174.686 332.017 174.686 317.382 151.108 313.847 144.868 310.345 138.634 304.378 137.834 304.378 137.834L264.502 137.834 264.302 137.296 292.465 109.12C292.465 109.12 296.123 104.326 294.201 97.4169 292.28 90.5369 285.963 63.5166 285.963 63.5166 285.963 63.5166 258.938 57.1895 252.067 55.2607 245.135 53.341 240.339 56.9817 240.339 56.9817L212.193 85.149 211.656 84.926 211.656 45.1233C211.656 45.1233 210.825 39.1442 204.583 35.6105 198.373 32.0812 174.794 17.4399 174.794 17.4399 174.794 17.4399 151.197 32.0812 144.987 35.6105 138.713 39.1442 137.916 45.1233 137.916 45.1233L137.916 84.926 137.394 85.149 109.217 56.9817C109.217 56.9817 104.435 53.341 97.5339 55.2607 90.6321 57.1895 63.6085 63.5166 63.6085 63.5166 63.6085 63.5166 57.2887 90.5292 55.3521 97.4169 53.4477 104.318 57.1055 109.12 57.1055 109.12L85.2666 137.296 85.0514 137.834 45.1776 137.834C45.1776 137.834 39.229 138.634 35.6948 144.868 32.173 151.108 17.5371 174.686 17.5371 174.686 17.5371 174.686 32.173 198.264 35.6948 204.484 39.229 210.715 45.1776 211.537 45.1776 211.537L85.0514 211.537 85.2666 212.078 57.1055 240.237C57.1055 240.237 53.4477 245.039 55.3521 251.926 57.2887 258.812 63.6085 285.865 63.6085 285.865 63.6085 285.865 90.6321 292.183 97.5033 294.104 104.435 296.017 109.217 292.366 109.217 292.366L137.394 264.183 137.916 264.406 137.916 304.264C137.916 304.264 138.713 310.228 144.987 313.739 151.197 317.26 174.794 331.917 174.794 331.917 174.794 331.917 198.373 317.26 204.583 313.739 210.825 310.228 211.656 304.264 211.656 304.264L211.656 264.406ZM326.315 213.974C326.315 213.974 321.042 223.866 310.742 223.866L293.542 223.866 305.7 236.042C312.972 243.308 309.714 254.053 309.714 254.053L298.183 298.07 254.158 309.611C254.158 309.611 243.415 312.879 236.141 305.6L223.967 293.426 223.967 310.643C223.967 320.926 214.083 326.23 214.083 326.23L174.794 349.178 135.488 326.23C135.488 326.23 125.587 320.926 125.587 310.643L125.587 293.426 113.428 305.6C106.143 312.879 95.4262 309.611 95.4262 309.611L51.3875 298.07 39.8444 254.053C39.8444 254.053 36.5989 243.308 43.8687 236.042L56.0304 223.866 38.8133 223.866C28.5289 223.866 23.24 213.974 23.24 213.974L0.277314 174.686 23.24 135.398C23.24 135.398 28.5289 125.491 38.8133 125.491L56.0304 125.491 43.8687 113.333C36.5989 106.049 39.8444 95.3337 39.8444 95.3337L51.3875 51.2946 95.4262 39.746C95.4262 39.746 106.143 36.4855 113.428 43.7731L125.587 55.9372 125.587 38.7289C125.587 28.4234 135.488 23.1593 135.488 23.1593L174.794 0.178211 214.083 23.1593C214.083 23.1593 223.967 28.4234 223.967 38.7289L223.967 55.9372 236.141 43.7731C243.415 36.4855 254.158 39.746 254.158 39.746L298.183 51.2946 309.714 95.3337C309.714 95.3337 312.972 106.049 305.7 113.333L293.542 125.491 310.742 125.491C321.042 125.491 326.315 135.398 326.315 135.398L349.278 174.686Z" fill-rule="evenodd" transform="matrix(1 0 0 -1.00134 0 351.469)"/><path d="M297.094 187.523C293.585 193.765 287.608 194.589 287.608 194.589L247.67 194.589 247.468 195.129 275.677 223.336C275.677 223.336 279.341 228.148 277.417 235.044 275.491 241.942 269.163 269.039 269.163 269.039 269.163 269.039 242.095 275.368 235.211 277.294 228.269 279.21 223.464 275.553 223.464 275.553L195.273 247.322 194.735 247.548 194.735 287.471C194.735 287.471 193.902 293.444 187.65 296.963 181.43 300.487 157.81 315.169 157.81 315.169 157.81 315.169 134.176 300.487 127.956 296.963 121.672 293.444 120.872 287.471 120.872 287.471L120.872 247.548 120.349 247.322 92.1255 275.553C92.1255 275.553 87.3374 279.21 80.3921 277.294 73.5112 275.368 46.4416 269.039 46.4416 269.039 46.4416 269.039 40.1128 241.942 38.1716 235.044 36.2655 228.148 39.9292 223.336 39.9292 223.336L68.1369 195.129 67.9199 194.589 27.9817 194.589C27.9817 194.589 22.023 193.765 18.4816 187.523 14.9553 181.293 0.293913 157.677 0.293913 157.677 0.293913 157.677 14.9553 134.06 18.4816 127.808 22.023 121.563 27.9817 120.762 27.9817 120.762L67.9199 120.762 68.1369 120.225 39.9292 92.003C39.9292 92.003 36.2655 87.1905 38.1716 80.2776 40.1128 73.3786 46.4416 46.3208 46.4416 46.3208 46.4416 46.3208 73.5112 39.9848 80.4242 38.0543 87.3374 36.1282 92.1255 39.7784 92.1255 39.7784L120.349 67.9925 120.872 67.7675 120.872 27.8986C120.872 27.8986 121.672 21.9095 127.956 18.3683 134.176 14.833 157.81 0.169113 157.81 0.169113 157.81 0.169113 181.43 14.833 187.65 18.3683 193.902 21.9095 194.735 27.8986 194.735 27.8986L194.735 67.7675 195.273 67.9925 223.464 39.7784C223.464 39.7784 228.269 36.1282 235.211 38.0543 242.095 39.9848 269.163 46.3208 269.163 46.3208 269.163 46.3208 275.491 73.3863 277.417 80.2776 279.341 87.1996 275.677 92.003 275.677 92.003L247.468 120.225 247.67 120.762 287.608 120.762C287.608 120.762 293.585 121.563 297.094 127.808 300.636 134.06 315.294 157.677 315.294 157.677 315.294 157.677 300.636 181.293 297.094 187.523" fill="#D8A620" fill-rule="evenodd" transform="matrix(1 0 0 -1.00134 17 334.446)"/><path d="M228.83 107.557C226.622 103.78 222.834 103.295 222.834 103.295L192.283 103.295 192.283 148.067 222.834 148.067C222.834 148.067 226.622 147.567 228.83 143.751 231.085 139.962 240.327 125.675 240.327 125.675 240.327 125.675 231.085 111.329 228.83 107.557M210.25 72.8599C210.25 72.8599 212.55 69.8787 211.461 65.586 210.358 61.351 206.785 44.6704 206.785 44.6704 206.785 44.6704 190.122 41.092 185.876 40.0027 181.612 38.9198 178.578 41.2458 178.578 41.2458L161.117 58.6776 192.283 58.6776 192.283 90.8065ZM74.5481 176.946 177.06 176.946 177.06 74.4018 74.5481 74.4018ZM148.163 28.6264C148.163 28.6264 147.688 24.8682 143.9 22.6153 140.115 20.3835 125.813 11.1368 125.813 11.1368 125.813 11.1368 111.479 20.3835 107.693 22.6153 103.936 24.8682 103.429 28.6264 103.429 28.6264L103.429 58.6776 148.163 58.6776ZM73.031 41.2458C73.031 41.2458 70.0107 38.9198 65.749 40.0089 61.4706 41.092 44.8214 44.6704 44.8214 44.6704 44.8214 44.6704 41.236 61.351 40.147 65.586 39.058 69.8787 41.3883 72.8599 41.3883 72.8599L57.6856 89.1903 57.6856 58.6776 90.4919 58.6776ZM28.7876 103.295C28.7876 103.295 25.0163 103.78 22.7621 107.557 20.5398 111.329 11.2823 125.675 11.2823 125.675 11.2823 125.675 20.5398 139.962 22.7621 143.751 25.0163 147.567 28.7876 148.067 28.7876 148.067L57.6856 148.067 57.6856 103.295ZM41.3883 178.454C41.3883 178.454 39.058 181.467 40.147 185.731 41.236 189.994 44.8214 206.659 44.8214 206.659 44.8214 206.659 61.4706 210.247 65.749 211.327 70.0107 212.448 73.031 210.101 73.031 210.101L88.1768 194.945 57.6856 194.945 57.6856 162.15ZM103.429 222.697C103.429 222.697 103.936 226.478 107.693 228.714 111.479 230.952 125.813 240.223 125.813 240.223 125.813 240.223 140.115 230.952 143.9 228.714 147.688 226.478 148.163 222.697 148.163 222.697L148.163 194.945 103.429 194.945ZM178.578 210.101C178.578 210.101 181.612 212.448 185.86 211.327 190.122 210.247 206.785 206.659 206.785 206.659 206.785 206.659 210.358 189.994 211.461 185.731 212.55 181.467 210.219 178.454 210.219 178.454L192.283 160.509 192.283 194.945 163.432 194.945ZM236.725 149.508C236.725 149.508 233.398 155.516 226.853 155.516L197.879 155.516 218.359 176.025C222.991 180.617 221.119 187.247 221.119 187.247L214.528 214.404 187.362 220.988C187.362 220.988 180.755 222.875 176.14 218.243L155.66 197.766 155.66 226.745C155.66 233.254 149.634 236.59 149.634 236.59L125.813 251.161 101.956 236.59C101.956 236.59 95.9478 233.254 95.9478 226.745L95.9478 197.766 75.4512 218.243C70.8514 222.875 64.2305 220.988 64.2305 220.988L37.0808 214.404 30.489 187.24C30.489 187.24 28.6185 180.617 33.232 176.025L53.7301 155.516 24.7558 155.516C18.2095 155.516 14.8678 149.508 14.8678 149.508L0.287114 125.675 14.8678 101.814C14.8678 101.814 18.2095 95.7971 24.7558 95.7971L53.7301 95.7971 33.232 75.3218C28.6185 70.7121 30.489 64.1067 30.489 64.1067L37.0808 36.9209 64.2305 30.3522C64.2305 30.3522 70.8514 28.4724 75.4512 33.0869L95.9478 53.5728 95.9478 24.5865C95.9478 18.0603 101.956 14.7334 101.956 14.7334L125.813 0.160972 149.634 14.7334C149.634 14.7334 155.66 18.0603 155.66 24.5865L155.66 53.5728 176.14 33.0869C180.755 28.4724 187.362 30.3522 187.362 30.3522L214.528 36.9209 221.119 64.1067C221.119 64.1067 222.991 70.7121 218.359 75.3218L197.879 95.7971 226.853 95.7971C233.398 95.7971 236.725 101.814 236.725 101.814L251.287 125.675Z" fill-rule="evenodd" transform="matrix(1 0 0 -1.00134 49 302.403)"/><path d="M46.2713 17.7721C45.3512 17.7721 44.5822 18.5417 44.5822 19.4811 44.5822 20.4142 45.3512 21.1838 46.2713 21.1932 47.21 21.1838 47.9607 20.4142 47.9607 19.4811 47.9607 18.5417 47.21 17.7721 46.2713 17.7721M92.2715 33.5261C78.4797 43.6284 71.3841 40.8393 70.2458 40.7321 69.1257 40.642 46.5642 31.7253 46.2713 31.6167 45.9815 31.7253 23.4338 40.642 22.2971 40.7321 21.1602 40.8393 14.0812 43.6284 0.271309 33.5261L41.4036 17.6863 6.64527 0.163838 16.6448 0.163838 46.2713 15.3181 75.8995 0.163838 85.9127 0.163838 51.1561 17.6863Z" fill-rule="evenodd" transform="matrix(1 0 0 -1.00134 129 196.262)"/><path d="M61.5111 14.5302 37.7686 5.33431 14.0262 14.5302C14.0262 14.5302 6.68202 16.7605 0.276855 12.8284L33.3152 0.160046C33.3152 0.160046 34.5369 2.48601 37.7686 2.50982 41.0018 2.48601 42.239 0.160046 42.239 0.160046L75.2771 12.8284C68.8584 16.7605 61.5111 14.5302 61.5111 14.5302" fill="#FFFFFF" fill-rule="evenodd" transform="matrix(1 0 0 -1.00134 137 174.232)"/></g></svg>